<svg xmlns="http://www.w3.org/2000/svg" xmlns:svg="http://www.w3.org/2000/svg" xmlns:xlink="http://www.w3.org/1999/xlink" version="1.0" height="815pt" width="1218.5pt" viewBox="0 297 1226.5 821" ><defs><style type="text/css">
            @font-face {
                font-family: 'noto_regular';
                src: url('https://app.creately.com/diagram/assets/fonts/noto/noto-regular.woff') format('woff'),
                     url('https://app.creately.com/diagram/assets/fonts/noto/noto-regular.woff2') format('woff2');
                font-weight: normal;
                font-style: normal;
            }
        p {
            margin: 0;
        }
        </style></defs><defs><style>
            span{ display: inline-block; }
        </style></defs><g id="md9opzbmqb"><g transform="translate(155 700)"><rect x="0" y="0" width="100" height="50" fill="rgba(255,255,255,1)" stroke="#75c19b" stroke-width="1.5" stroke-linecap="round" stroke-linejoin="round"/></g><g transform="translate(187, 716) rotate(0, 18, 9)" width="36" height="18"><text text-decoration="none" x="0.5" fill="rgb(75, 75, 75)" font-size="10pt" font-family="noto_regular"  y="17">Entity</text><text text-decoration="none" x="35.5" fill="#4b4b4b" font-size="10pt" font-family="noto_regular"  y="17"></text></g></g><g id="91066tqcfa"><g transform="translate(155 430)"><rect x="0" y="0" width="100" height="50" fill="rgba(255,255,255,1)" stroke="#75c19b" stroke-width="1.5" stroke-linecap="round" stroke-linejoin="round"/></g><g transform="translate(165.5, 445.5) rotate(0, 39.5, 9.5)" width="79" height="19"><text text-decoration="none" x="2" fill="rgb(75, 75, 75)" font-size="10pt" font-family="Lato"  y="17">Student&#160;</text><text text-decoration="none" x="53" fill="rgb(75, 75, 75)" font-size="10pt" font-family="Lato"  y="17">Info</text><text text-decoration="none" x="77" fill="#4b4b4b" font-size="10pt" font-family="noto_regular"  y="17"></text></g></g><g id="59yignc3k4"><g transform="translate(935 415)"><rect x="0" y="0" width="100" height="50" fill="rgba(255,255,255,1)" stroke="#75c19b" stroke-width="1.5" stroke-linecap="round" stroke-linejoin="round"/></g><g transform="translate(957.5, 430.5) rotate(0, 27.5, 9.5)" width="55" height="19"><text text-decoration="none" x="2" fill="rgb(75, 75, 75)" font-size="10pt" font-family="Lato"  y="17">Paciente</text><text text-decoration="none" x="53" fill="#4b4b4b" font-size="10pt" font-family="noto_regular"  y="17"></text></g></g><g id="4igygksjw4"><g transform="translate(900 695)"><rect x="0" y="0" width="170.00000476837158" height="55.000001192092896" fill="rgba(255,255,255,1)" stroke="#75c19b" stroke-width="1.5" stroke-linecap="round" stroke-linejoin="round"/></g><g transform="translate(923.0000023841858, 713.0000005960464) rotate(0, 62, 9.5)" width="124" height="19"><text text-decoration="none" x="3.5" fill="rgb(75, 75, 75)" font-size="10pt" font-family="Lato"  y="17">Paciente_Internado</text><text text-decoration="none" x="120.5" fill="#4b4b4b" font-size="10pt" font-family="noto_regular"  y="17"></text></g></g><g id="clo6op994n"><g transform="translate(510 700)"><rect x="0" y="0" width="100" height="50" fill="rgba(255,255,255,1)" stroke="#75c19b" stroke-width="1.5" stroke-linecap="round" stroke-linejoin="round"/></g><g transform="translate(520, 715.5) rotate(0, 40, 9.5)" width="80" height="19"><text text-decoration="none" x="3" fill="rgb(75, 75, 75)" font-size="10pt" font-family="Lato"  y="17">Consultancy</text><text text-decoration="none" x="77" fill="#4b4b4b" font-size="10pt" font-family="noto_regular"  y="17"></text></g></g><g id="2clq50q3sk"><g><path d="M 205,480 L 205,560" fill="none" stroke="#a0a0a0" stroke-width="1.5" stroke-linecap="round" stroke-linejoin="round"/></g></g><g id="1c8a3s7kr4"><g><path d="M 205,605 L 205,700" fill="none" stroke="#a0a0a0" stroke-width="1.5" stroke-linecap="round" stroke-linejoin="round"/></g></g><g id="1g0xknhgt1"><g transform="translate(510 960)"><rect x="0" y="0" width="100" height="50" fill="rgba(255,255,255,1)" stroke="#75c19b" stroke-width="1.5" stroke-linecap="round" stroke-linejoin="round"/></g><g transform="translate(544, 975.5) rotate(0, 16, 9.5)" width="32" height="19"><text text-decoration="none" x="1" fill="rgb(75, 75, 75)" font-size="10pt" font-family="Lato"  y="17">Leito</text><text text-decoration="none" x="31" fill="#4b4b4b" font-size="10pt" font-family="noto_regular"  y="17"></text></g></g><g id="9y87dcrtzc"><g transform="translate(40 375)"><ellipse cx="50" cy="25" rx="50" ry="25" fill="rgba(255,255,255,1)" stroke="#f6902a" stroke-width="1.5" stroke-linecap="round" stroke-linejoin="round"/></g><g transform="translate(56, 390.5) rotate(0, 34, 9.5)" width="68" height="19"><text text-decoration="underline" x="2" fill="rgb(75, 75, 75)" font-size="10pt" font-family="Lato"  y="17">Student&#160;</text><text text-decoration="underline" x="53" fill="rgb(75, 75, 75)" font-size="10pt" font-family="Lato"  y="17">ID</text><text text-decoration="none" x="66" fill="#4b4b4b" font-size="10pt" font-family="noto_regular"  y="17"></text></g></g><g id="2ai0iocuq3"><g><path d="M 155,455 L 120,420" fill="none" stroke="#a0a0a0" stroke-width="1.5" stroke-linecap="round" stroke-linejoin="round"/></g></g><g id="5kn9p4e35s"><g transform="translate(40 525)"><ellipse cx="50" cy="25" rx="50" ry="25" fill="rgba(255,255,255,1)" stroke="#f6902a" stroke-width="1.5" stroke-linecap="round" stroke-linejoin="round"/></g><g transform="translate(64, 540.5) rotate(0, 26, 9.5)" width="52" height="19"><text text-decoration="none" x="2" fill="rgb(75, 75, 75)" font-size="10pt" font-family="Lato"  y="17">Address</text><text text-decoration="none" x="50" fill="#4b4b4b" font-size="10pt" font-family="noto_regular"  y="17"></text></g></g><g id="2mlbqwe3cz"><g><path d="M 155,455 L 120,530" fill="none" stroke="#a0a0a0" stroke-width="1.5" stroke-linecap="round" stroke-linejoin="round"/></g></g><g id="154pz32w32"><g transform="translate(35 430)"><ellipse cx="50" cy="25" rx="50" ry="25" fill="rgba(255,255,255,1)" stroke="#f6902a" stroke-width="1.5" stroke-linecap="round" stroke-linejoin="round"/></g><g transform="translate(38.5, 445.5) rotate(0, 46.5, 9.5)" width="93" height="19"><text text-decoration="none" x="3" fill="rgb(75, 75, 75)" font-size="10pt" font-family="Lato"  y="17">Student&#160;</text><text text-decoration="none" x="54" fill="rgb(75, 75, 75)" font-size="10pt" font-family="Lato"  y="17">Name</text><text text-decoration="none" x="90" fill="#4b4b4b" font-size="10pt" font-family="noto_regular"  y="17"></text></g></g><g id="10d82zf0ht"><g><path d="M 155,455 L 135,460" fill="none" stroke="#a0a0a0" stroke-width="1.5" stroke-linecap="round" stroke-linejoin="round"/></g></g><g id="5xlki5ljtd"><g transform="translate(960 565)"><path d="M 0,45 L 50,45 L 25,0 L 0,45 Z" fill="rgba(255,255,255,1)" stroke="#75c19b" stroke-width="1.5" stroke-linecap="round" stroke-linejoin="round"/></g><g transform="translate(974.5, 578) rotate(0, 10.5, 9.5)" width="21" height="19"><text text-decoration="none" x="1" fill="rgb(75, 75, 75)" font-size="10pt" font-family="Lato"  y="17">ISA</text><text text-decoration="none" x="20" fill="#4b4b4b" font-size="10pt" font-family="noto_regular"  y="17"></text></g></g><g id="202nezwxg5"><g><path d="M 985,565 L 985,465" fill="none" stroke="#a0a0a0" stroke-width="1.5" stroke-linecap="round" stroke-linejoin="round"/></g></g><g id="bq665zkvg0"><g><path d="M 985,610 L 985,695" fill="none" stroke="#a0a0a0" stroke-width="1.5" stroke-linecap="round" stroke-linejoin="round"/></g></g><g id="6twzm34jkw"><g transform="translate(335 695)"><path d="M 130,30 L 65,60 L 0,30 L 65,0 L 130,30 L 130,30 Z" fill="rgba(255,255,255,1)" stroke="#75c19b" stroke-width="1.5" stroke-linecap="round" stroke-linejoin="round"/></g><g transform="translate(374.5, 715.5) rotate(0, 25.5, 9.5)" width="51" height="19"><text text-decoration="none" x="1.5" fill="rgb(75, 75, 75)" font-size="10pt" font-family="Lato"  y="17">Cont&#xE9;m</text><text text-decoration="none" x="49.5" fill="#4b4b4b" font-size="10pt" font-family="noto_regular"  y="17"></text></g></g><g id="1y1gz52fja"><mask id="41fe2" x="242" y="712" width="106" height="26" maskUnits="userSpaceOnUse"><rect x="242" y="712" width="106" height="26" fill="white" /><rect x="287.9005593536358" y="712.5" width="14" height="25" fill="black" /></mask><g mask="url(#41fe2)"><path d="M 335,725 L 270,725 L 270,725 L 270,725 L 255,725" fill="none" stroke="#a0a0a0" stroke-width="1.5" stroke-linecap="round" stroke-linejoin="round"/></g><g transform="translate(290.9005593536358, 715.5)" width="8" height="19"><text text-decoration="none" x="0.5" fill="rgb(75, 75, 75)" font-weight="bold" font-size="9pt" font-family="Arial"  y="17">1</text><text text-decoration="none" x="7.5" fill="#4b4b4b" font-size="10pt" font-family="noto_regular"  y="17"></text></g></g><g id="uqyxyivd7a"><mask id="9a119" x="452" y="712" width="71" height="26" maskUnits="userSpaceOnUse"><rect x="452" y="712" width="71" height="26" fill="white" /><rect x="479.5" y="712.5" width="16" height="25" fill="black" /></mask><g mask="url(#9a119)"><path d="M 465,725 L 510,725" fill="none" stroke="#a0a0a0" stroke-width="1.5" stroke-linecap="round" stroke-linejoin="round"/></g><g transform="translate(482.5, 715.5)" width="10" height="19"><text text-decoration="none" x="0" fill="rgb(75, 75, 75)" font-weight="bold" font-size="9pt" font-family="Arial"  y="17">N</text><text text-decoration="none" x="10" fill="#4b4b4b" font-size="10pt" font-family="noto_regular"  y="17"></text></g></g><g id="2peeu3tk6b"><g transform="translate(495 835)"><path d="M 130,30 L 65,60 L 0,30 L 65,0 L 130,30 L 130,30 Z" fill="rgba(255,255,255,1)" stroke="#75c19b" stroke-width="1.5" stroke-linecap="round" stroke-linejoin="round"/></g><g transform="translate(534.5, 855.5) rotate(0, 25.5, 9.5)" width="51" height="19"><text text-decoration="none" x="1.5" fill="rgb(75, 75, 75)" font-size="10pt" font-family="Lato"  y="17">Cont&#xE9;m</text><text text-decoration="none" x="49.5" fill="#4b4b4b" font-size="10pt" font-family="noto_regular"  y="17"></text></g></g><g id="8vwdweb1h2"><mask id="57cd8" x="547" y="882" width="26" height="91" maskUnits="userSpaceOnUse"><rect x="547" y="882" width="26" height="91" fill="white" /><rect x="553" y="915" width="14" height="25" fill="black" /></mask><g mask="url(#57cd8)"><path d="M 560,960 L 560,895" fill="none" stroke="#a0a0a0" stroke-width="1.5" stroke-linecap="round" stroke-linejoin="round"/></g><g transform="translate(556, 918)" width="8" height="19"><text text-decoration="none" x="0.5" fill="rgb(75, 75, 75)" font-weight="bold" font-size="9pt" font-family="Arial"  y="17">1</text><text text-decoration="none" x="7.5" fill="#4b4b4b" font-size="10pt" font-family="noto_regular"  y="17"></text></g></g><g id="dn3g6xa1oq"><mask id="a161b" x="547" y="737" width="26" height="111" maskUnits="userSpaceOnUse"><rect x="547" y="737" width="26" height="111" fill="white" /><rect x="552" y="780" width="16" height="25" fill="black" /></mask><g mask="url(#a161b)"><path d="M 560,750 L 560,835" fill="none" stroke="#a0a0a0" stroke-width="1.5" stroke-linecap="round" stroke-linejoin="round"/></g><g transform="translate(555, 783)" width="10" height="19"><text text-decoration="none" x="0" fill="rgb(75, 75, 75)" font-weight="bold" font-size="9pt" font-family="Arial"  y="17">N</text><text text-decoration="none" x="10" fill="#4b4b4b" font-size="10pt" font-family="noto_regular"  y="17"></text></g></g><g id="14afamtis5"><g transform="translate(695 695)"><path d="M 130,30 L 65,60 L 0,30 L 65,0 L 130,30 L 130,30 Z" fill="rgba(255,255,255,1)" stroke="#75c19b" stroke-width="1.5" stroke-linecap="round" stroke-linejoin="round"/></g><g transform="translate(735, 715.5) rotate(0, 25, 9.5)" width="50" height="19"><text text-decoration="none" x="2.5" fill="rgb(75, 75, 75)" font-size="10pt" font-family="Lato"  y="17">Tied&#160;</text><text text-decoration="none" x="30.5" fill="rgb(75, 75, 75)" font-size="10pt" font-family="Lato"  y="17">Up</text><text text-decoration="none" x="47.5" fill="#4b4b4b" font-size="10pt" font-family="noto_regular"  y="17"></text></g></g><g id="2s4wuqa651"><mask id="95710" x="812" y="712" width="101" height="26" maskUnits="userSpaceOnUse"><rect x="812" y="712" width="101" height="26" fill="white" /><rect x="855.5" y="712.5" width="14" height="25" fill="black" /></mask><g mask="url(#95710)"><path d="M 900,725 L 825,725" fill="none" stroke="#a0a0a0" stroke-width="1.5" stroke-linecap="round" stroke-linejoin="round"/></g><g transform="translate(858.5, 715.5)" width="8" height="19"><text text-decoration="none" x="0.5" fill="rgb(75, 75, 75)" font-weight="bold" font-size="9pt" font-family="Arial"  y="17">1</text><text text-decoration="none" x="7.5" fill="#4b4b4b" font-size="10pt" font-family="noto_regular"  y="17"></text></g></g><g id="4o98cxi0rp"><mask id="bc992" x="597" y="712" width="111" height="26" maskUnits="userSpaceOnUse"><rect x="597" y="712" width="111" height="26" fill="white" /><rect x="644.5" y="712.5" width="16" height="25" fill="black" /></mask><g mask="url(#bc992)"><path d="M 695,725 L 610,725" fill="none" stroke="#a0a0a0" stroke-width="1.5" stroke-linecap="round" stroke-linejoin="round"/></g><g transform="translate(647.5, 715.5)" width="10" height="19"><text text-decoration="none" x="0" fill="rgb(75, 75, 75)" font-weight="bold" font-size="9pt" font-family="Arial"  y="17">N</text><text text-decoration="none" x="10" fill="#4b4b4b" font-size="10pt" font-family="noto_regular"  y="17"></text></g></g><g id="1kqjsnigkx"><g transform="translate(1095 415)"><ellipse cx="50" cy="25" rx="50" ry="25" fill="rgba(255,255,255,1)" stroke="#f6902a" stroke-width="1.5" stroke-linecap="round" stroke-linejoin="round"/></g><g transform="translate(1133, 430.5) rotate(0, 12, 9.5)" width="24" height="19"><text text-decoration="underline" x="0.5" fill="rgb(75, 75, 75)" font-size="10pt" font-family="Lato"  y="17">CPF</text><text text-decoration="none" x="23.5" fill="#4b4b4b" font-size="10pt" font-family="noto_regular"  y="17"></text></g></g><g id="2155wgtgv5"><g><path d="M 1035,440 L 1095,440" fill="none" stroke="#a0a0a0" stroke-width="1.5" stroke-linecap="round" stroke-linejoin="round"/></g></g><g id="1mx1k0m7i4"><g transform="translate(745 415)"><ellipse cx="50" cy="25" rx="50" ry="25" fill="rgba(255,255,255,1)" stroke="#f6902a" stroke-width="1.5" stroke-linecap="round" stroke-linejoin="round"/></g><g transform="translate(777, 430.5) rotate(0, 18, 9.5)" width="36" height="19"><text text-decoration="none" x="1" fill="rgb(75, 75, 75)" font-size="10pt" font-family="Lato"  y="17">Idade</text><text text-decoration="none" x="35" fill="#4b4b4b" font-size="10pt" font-family="noto_regular"  y="17"></text></g></g><g id="ats3xd8o3o"><g><path d="M 935,440 L 845,440" fill="none" stroke="#a0a0a0" stroke-width="1.5" stroke-linecap="round" stroke-linejoin="round"/></g></g><g id="1s72kr2d9t"><g transform="translate(750 480)"><ellipse cx="50" cy="25" rx="50" ry="25" fill="rgba(255,255,255,1)" stroke="#f6902a" stroke-width="1.5" stroke-linecap="round" stroke-linejoin="round"/></g><g transform="translate(784, 495.5) rotate(0, 16, 9.5)" width="32" height="19"><text text-decoration="none" x="1.5" fill="rgb(75, 75, 75)" font-size="10pt" font-family="Lato"  y="17">Sexo</text><text text-decoration="none" x="30.5" fill="#4b4b4b" font-size="10pt" font-family="noto_regular"  y="17"></text></g></g><g id="30hf3i926x"><g><path d="M 935,440 L 850,505" fill="none" stroke="#a0a0a0" stroke-width="1.5" stroke-linecap="round" stroke-linejoin="round"/></g></g><g id="2cyu9z6lfs"><g transform="translate(755 545)"><ellipse cx="50" cy="25" rx="50" ry="25" fill="rgba(255,255,255,1)" stroke="#f6902a" stroke-width="1.5" stroke-linecap="round" stroke-linejoin="round"/></g><g transform="translate(777.5, 560.5) rotate(0, 27.5, 9.5)" width="55" height="19"><text text-decoration="none" x="2" fill="rgb(75, 75, 75)" font-size="10pt" font-family="Lato"  y="17">Telefone</text><text text-decoration="none" x="53" fill="#4b4b4b" font-size="10pt" font-family="noto_regular"  y="17"></text></g></g><g id="d5ca5x5jy5"><g><path d="M 935,440 L 835,550" fill="none" stroke="#a0a0a0" stroke-width="1.5" stroke-linecap="round" stroke-linejoin="round"/></g></g><g id="1wfl9446lt"><g transform="translate(745 355)"><ellipse cx="50" cy="25" rx="50" ry="25" fill="rgba(255,255,255,1)" stroke="#f6902a" stroke-width="1.5" stroke-linecap="round" stroke-linejoin="round"/></g><g transform="translate(775.5, 370.5) rotate(0, 19.5, 9.5)" width="39" height="19"><text text-decoration="none" x="1" fill="rgb(75, 75, 75)" font-size="10pt" font-family="Lato"  y="17">Nome</text><text text-decoration="none" x="38" fill="#4b4b4b" font-size="10pt" font-family="noto_regular"  y="17"></text></g></g><g id="bwoj41tggc"><g><path d="M 935,440 L 845,380" fill="none" stroke="#a0a0a0" stroke-width="1.5" stroke-linecap="round" stroke-linejoin="round"/></g></g><g id="2bceilwie8"><g transform="translate(1105 590)"><ellipse cx="50" cy="25" rx="50" ry="25" fill="rgba(255,255,255,1)" stroke="#f6902a" stroke-width="1.5" stroke-linecap="round" stroke-linejoin="round"/></g><g transform="translate(1086.5, 605.5) rotate(0, 68.5, 9.5)" width="137" height="19"><text text-decoration="underline" x="5" fill="rgb(75, 75, 75)" font-size="10pt" font-family="Lato"  y="17">paciente_internadoid</text><text text-decoration="none" x="132" fill="#4b4b4b" font-size="10pt" font-family="noto_regular"  y="17"></text></g></g><g id="9bdrz6wphd"><g><path d="M 1070,725 L 1125,635" fill="none" stroke="#a0a0a0" stroke-width="1.5" stroke-linecap="round" stroke-linejoin="round"/></g></g><g id="1w1fy84r4h"><g transform="translate(1115 850)"><ellipse cx="50" cy="25" rx="50" ry="25" fill="rgba(255,255,255,1)" stroke="#f6902a" stroke-width="1.5" stroke-linecap="round" stroke-linejoin="round"/></g><g transform="translate(1127.5, 865.5) rotate(0, 37.5, 9.5)" width="75" height="19"><text text-decoration="none" x="3" fill="rgb(75, 75, 75)" font-size="10pt" font-family="Lato"  y="17">diagn&#xF3;stico</text><text text-decoration="none" x="72" fill="#4b4b4b" font-size="10pt" font-family="noto_regular"  y="17"></text></g></g><g id="5hetn4z6ki"><g><path d="M 1070,725 L 1135,855" fill="none" stroke="#a0a0a0" stroke-width="1.5" stroke-linecap="round" stroke-linejoin="round"/></g></g><g id="1w0rft540k"><g transform="translate(1120 700)"><ellipse cx="50" cy="25" rx="50" ry="25" fill="rgba(255,255,255,1)" stroke="#f6902a" stroke-width="1.5" stroke-linecap="round" stroke-linejoin="round"/></g><g transform="translate(1142, 715.5) rotate(0, 28, 9.5)" width="56" height="19"><text text-decoration="none" x="2.5" fill="rgb(75, 75, 75)" font-size="10pt" font-family="Lato"  y="17">urg&#xEA;ncia</text><text text-decoration="none" x="53.5" fill="#4b4b4b" font-size="10pt" font-family="noto_regular"  y="17"></text></g></g><g id="d0ol4iivme"><g><path d="M 1070,725 L 1120,725" fill="none" stroke="#a0a0a0" stroke-width="1.5" stroke-linecap="round" stroke-linejoin="round"/></g></g><g id="tltia2ed17"><g transform="translate(680 960)"><ellipse cx="50" cy="25" rx="50" ry="25" fill="rgba(255,255,255,1)" stroke="#f6902a" stroke-width="1.5" stroke-linecap="round" stroke-linejoin="round"/></g><g transform="translate(709.5, 975.5) rotate(0, 20.5, 9.5)" width="41" height="19"><text text-decoration="underline" x="2" fill="rgb(75, 75, 75)" font-size="10pt" font-family="Lato"  y="17">idleito</text><text text-decoration="none" x="39" fill="#4b4b4b" font-size="10pt" font-family="noto_regular"  y="17"></text></g></g><g id="1jbdvdsznl"><g><path d="M 610,985 L 680,985" fill="none" stroke="#a0a0a0" stroke-width="1.5" stroke-linecap="round" stroke-linejoin="round"/></g></g><g id="cy95jvx4fj"><g transform="translate(330 915)"><ellipse cx="50" cy="25" rx="50" ry="25" fill="rgba(255,255,255,1)" stroke="#f6902a" stroke-width="1.5" stroke-linecap="round" stroke-linejoin="round"/></g><g transform="translate(361.5, 930.5) rotate(0, 18.5, 9.5)" width="37" height="19"><text text-decoration="none" x="1" fill="rgb(75, 75, 75)" font-size="10pt" font-family="Lato"  y="17">andar</text><text text-decoration="none" x="36" fill="#4b4b4b" font-size="10pt" font-family="noto_regular"  y="17"></text></g></g><g id="1ydb169kqt"><g><path d="M 510,985 L 430,940" fill="none" stroke="#a0a0a0" stroke-width="1.5" stroke-linecap="round" stroke-linejoin="round"/></g></g><g id="1v6rnm2bcq"><g transform="translate(330 980)"><ellipse cx="50" cy="25" rx="50" ry="25" fill="rgba(255,255,255,1)" stroke="#f6902a" stroke-width="1.5" stroke-linecap="round" stroke-linejoin="round"/></g><g transform="translate(370, 995.5) rotate(0, 10, 9.5)" width="20" height="19"><text text-decoration="none" x="1.5" fill="rgb(75, 75, 75)" font-size="10pt" font-family="Lato"  y="17">ala</text><text text-decoration="none" x="18.5" fill="#4b4b4b" font-size="10pt" font-family="noto_regular"  y="17"></text></g></g><g id="1bvqx5jceq"><g><path d="M 510,985 L 430,1005" fill="none" stroke="#a0a0a0" stroke-width="1.5" stroke-linecap="round" stroke-linejoin="round"/></g></g><g id="2913i6qhis"><g transform="translate(330 1050)"><ellipse cx="50" cy="25" rx="50" ry="25" fill="rgba(255,255,255,1)" stroke="#f6902a" stroke-width="1.5" stroke-linecap="round" stroke-linejoin="round"/></g><g transform="translate(355, 1065.5) rotate(0, 25, 9.5)" width="50" height="19"><text text-decoration="none" x="1" fill="rgb(75, 75, 75)" font-size="10pt" font-family="Lato"  y="17">numero</text><text text-decoration="none" x="49" fill="#4b4b4b" font-size="10pt" font-family="noto_regular"  y="17"></text></g></g><g id="1tatyaojm5"><g><path d="M 510,985 L 430,1075" fill="none" stroke="#a0a0a0" stroke-width="1.5" stroke-linecap="round" stroke-linejoin="round"/></g></g><g id="216xmpd2uk"><g transform="translate(590 505)"><ellipse cx="50" cy="25" rx="50" ry="25" fill="rgba(255,255,255,1)" stroke="#f6902a" stroke-width="1.5" stroke-linecap="round" stroke-linejoin="round"/></g><g transform="translate(591, 520.5) rotate(0, 49, 9.5)" width="98" height="19"><text text-decoration="underline" x="4" fill="rgb(75, 75, 75)" font-size="10pt" font-family="Lato"  y="17">Consultancy&#160;</text><text text-decoration="underline" x="81" fill="rgb(75, 75, 75)" font-size="10pt" font-family="Lato"  y="17">ID</text><text text-decoration="none" x="94" fill="#4b4b4b" font-size="10pt" font-family="noto_regular"  y="17"></text></g></g><g id="7ud6hlkoi8"><g><path d="M 560,700 L 610,560" fill="none" stroke="#a0a0a0" stroke-width="1.5" stroke-linecap="round" stroke-linejoin="round"/></g></g><g id="5rcmxp1gzl"><g transform="translate(510 450)"><ellipse cx="50" cy="25" rx="50" ry="25" fill="rgba(255,255,255,1)" stroke="#f6902a" stroke-width="1.5" stroke-linecap="round" stroke-linejoin="round"/></g><g transform="translate(532, 465.5) rotate(0, 28, 9.5)" width="56" height="19"><text text-decoration="none" x="3.5" fill="rgb(75, 75, 75)" font-size="10pt" font-family="Lato"  y="17">Timings&#160;</text><text text-decoration="none" x="52.5" fill="#4b4b4b" font-size="10pt" font-family="noto_regular"  y="17"></text></g></g><g id="1orb63xzn2"><g><path d="M 560,700 L 560,500" fill="none" stroke="#a0a0a0" stroke-width="1.5" stroke-linecap="round" stroke-linejoin="round"/></g></g><g id="1i1t96i238"><g transform="translate(440 510)"><ellipse cx="50" cy="25" rx="50" ry="25" fill="rgba(255,255,255,1)" stroke="#f6902a" stroke-width="1.5" stroke-linecap="round" stroke-linejoin="round"/></g><g transform="translate(460.5, 525.5) rotate(0, 29.5, 9.5)" width="59" height="19"><text text-decoration="none" x="2" fill="rgb(75, 75, 75)" font-size="10pt" font-family="Lato"  y="17">Location&#160;</text><text text-decoration="none" x="57" fill="#4b4b4b" font-size="10pt" font-family="noto_regular"  y="17"></text></g></g><g id="2bas14rjn5"><g><path d="M 560,700 L 520,555" fill="none" stroke="#a0a0a0" stroke-width="1.5" stroke-linecap="round" stroke-linejoin="round"/></g></g><g id="1jz9cdbh5o"><g transform="translate(15 700)"><ellipse cx="50" cy="25" rx="50" ry="25" fill="rgba(255,255,255,1)" stroke="#f6902a" stroke-width="1.5" stroke-linecap="round" stroke-linejoin="round"/></g><g transform="translate(52.5, 715.5) rotate(0, 12.5, 9.5)" width="25" height="19"><text text-decoration="none" x="1" fill="rgb(75, 75, 75)" font-size="10pt" font-family="Lato"  y="17">crm</text><text text-decoration="none" x="24" fill="#4b4b4b" font-size="10pt" font-family="noto_regular"  y="17"></text></g></g><g id="1in5jqp8dt"><g><path d="M 155,725 L 115,725" fill="none" stroke="#a0a0a0" stroke-width="1.5" stroke-linecap="round" stroke-linejoin="round"/></g></g><g id="3lj7nnwnzx"><g transform="translate(150 950)"><rect x="0" y="0" width="114.99999761581421" height="50" fill="rgba(255,255,255,1)" stroke="#75c19b" stroke-width="1.5" stroke-linecap="round" stroke-linejoin="round"/></g><g transform="translate(162.4999988079071, 965.5) rotate(0, 45, 9.5)" width="90" height="19"><text text-decoration="none" x="5" fill="rgb(75, 75, 75)" font-size="10pt" font-family="Lato"  y="17">Especialidade</text><text text-decoration="none" x="85" fill="#4b4b4b" font-size="10pt" font-family="noto_regular"  y="17"></text></g></g><g id="1s13hs54mz"><g transform="translate(5 900)"><ellipse cx="57.499998807907104" cy="25" rx="57.499998807907104" ry="25" fill="rgba(255,255,255,1)" stroke="#f6902a" stroke-width="1.5" stroke-linecap="round" stroke-linejoin="round"/></g><g transform="translate(11.499998807907104, 915.5) rotate(0, 51, 9.5)" width="102" height="19"><text text-decoration="underline" x="5.5" fill="rgb(75, 75, 75)" font-size="10pt" font-family="Lato"  y="17">idespecialidade</text><text text-decoration="none" x="96.5" fill="#4b4b4b" font-size="10pt" font-family="noto_regular"  y="17"></text></g></g><g id="41zjg27sp2"><g><path d="M 150,975 L 120,925" fill="none" stroke="#a0a0a0" stroke-width="1.5" stroke-linecap="round" stroke-linejoin="round"/></g></g><g id="1hrkterlbo"><g transform="translate(155 1065)"><ellipse cx="50" cy="25" rx="50" ry="25" fill="rgba(255,255,255,1)" stroke="#f6902a" stroke-width="1.5" stroke-linecap="round" stroke-linejoin="round"/></g><g transform="translate(186.5, 1080.5) rotate(0, 18.5, 9.5)" width="37" height="19"><text text-decoration="none" x="1" fill="rgb(75, 75, 75)" font-size="10pt" font-family="Lato"  y="17">nome</text><text text-decoration="none" x="36" fill="#4b4b4b" font-size="10pt" font-family="noto_regular"  y="17"></text></g></g><g id="2iyiwy2w98"><g><path d="M 205,1000 L 205,1065" fill="none" stroke="#a0a0a0" stroke-width="1.5" stroke-linecap="round" stroke-linejoin="round"/></g></g><g id="3pxpd5y9om"><g transform="translate(15 970)"><ellipse cx="50" cy="25" rx="50" ry="25" fill="rgba(255,255,255,1)" stroke="#f6902a" stroke-width="1.5" stroke-linecap="round" stroke-linejoin="round"/></g><g transform="translate(50.5, 985.5) rotate(0, 14.5, 9.5)" width="29" height="19"><text text-decoration="none" x="1" fill="rgb(75, 75, 75)" font-size="10pt" font-family="Lato"  y="17">data</text><text text-decoration="none" x="28" fill="#4b4b4b" font-size="10pt" font-family="noto_regular"  y="17"></text></g></g><g id="9gx2flp1u2"><g><path d="M 150,975 L 115,995" fill="none" stroke="#a0a0a0" stroke-width="1.5" stroke-linecap="round" stroke-linejoin="round"/></g></g><g id="85al8n7ygd"><g transform="translate(140 805)"><path d="M 130,30 L 65,60 L 0,30 L 65,0 L 130,30 L 130,30 Z" fill="rgba(255,255,255,1)" stroke="#75c19b" stroke-width="1.5" stroke-linecap="round" stroke-linejoin="round"/></g><g transform="translate(179.5, 825.5) rotate(0, 25.5, 9.5)" width="51" height="19"><text text-decoration="none" x="1.5" fill="rgb(75, 75, 75)" font-size="10pt" font-family="Lato"  y="17">Cont&#xE9;m</text><text text-decoration="none" x="49.5" fill="#4b4b4b" font-size="10pt" font-family="noto_regular"  y="17"></text></g></g><g id="1j6zvwuect"><mask id="e0fc3" x="192" y="737" width="26" height="81" maskUnits="userSpaceOnUse"><rect x="192" y="737" width="26" height="81" fill="white" /><rect x="197" y="765" width="16" height="25" fill="black" /></mask><g mask="url(#e0fc3)"><path d="M 205,805 L 205,750" fill="none" stroke="#a0a0a0" stroke-width="1.5" stroke-linecap="round" stroke-linejoin="round"/></g><g transform="translate(200, 768)" width="10" height="19"><text text-decoration="none" x="0" fill="rgb(75, 75, 75)" font-weight="bold" font-size="9pt" font-family="Arial"  y="17">N</text><text text-decoration="none" x="10" fill="#4b4b4b" font-size="10pt" font-family="noto_regular"  y="17"></text></g></g><g id="2raxg63vld"><mask id="f0d79" x="192" y="852" width="26" height="111" maskUnits="userSpaceOnUse"><rect x="192" y="852" width="26" height="111" fill="white" /><rect x="198" y="895" width="14" height="25" fill="black" /></mask><g mask="url(#f0d79)"><path d="M 205,865 L 205,950" fill="none" stroke="#a0a0a0" stroke-width="1.5" stroke-linecap="round" stroke-linejoin="round"/></g><g transform="translate(201, 898)" width="8" height="19"><text text-decoration="none" x="0.5" fill="rgb(75, 75, 75)" font-weight="bold" font-size="9pt" font-family="Arial"  y="17">1</text><text text-decoration="none" x="7.5" fill="#4b4b4b" font-size="10pt" font-family="noto_regular"  y="17"></text></g></g><g id="5v7k658m8d"><g transform="translate(50 305)"><ellipse cx="50" cy="25" rx="50" ry="25" fill="rgba(255,255,255,1)" stroke="#f6902a" stroke-width="1.5" stroke-linecap="round" stroke-linejoin="round"/></g><g transform="translate(75, 320.5) rotate(0, 25, 9.5)" width="50" height="19"><text text-decoration="none" x="1.5" fill="rgb(75, 75, 75)" font-size="10pt" font-family="Lato"  y="17">Contact</text><text text-decoration="none" x="48.5" fill="#4b4b4b" font-size="10pt" font-family="noto_regular"  y="17"></text></g></g><g id="6de7agys5g"><g transform="translate(1120 300)"><ellipse cx="50" cy="25" rx="50" ry="25" fill="rgba(255,255,255,1)" stroke="#f6902a" stroke-width="1.5" stroke-linecap="round" stroke-linejoin="round"/></g><g transform="translate(1142, 316) rotate(0, 28, 9)" width="56" height="18"><text text-decoration="none" x="1" fill="rgb(97, 114, 130)" font-size="10pt" font-family="noto_regular"  y="17">Attribute</text><text text-decoration="none" x="55" fill="#4b4b4b" font-size="10pt" font-family="noto_regular"  y="17"></text></g></g><g id="1qxy0ufpyg"><g transform="translate(385 585)"><ellipse cx="50" cy="25" rx="50" ry="25" fill="rgba(255,255,255,1)" stroke="#f6902a" stroke-width="1.5" stroke-linecap="round" stroke-linejoin="round"/></g><g transform="translate(392, 592.5) rotate(0, 43, 17.5)" width="86" height="35"><text text-decoration="none" x="5" fill="rgb(75, 75, 75)" font-size="10pt" font-family="Lato"  y="14">VISA&#160;</text><text text-decoration="none" x="35" fill="rgb(75, 75, 75)" font-size="10pt" font-family="Lato"  y="14">Success&#160;</text><text text-decoration="none" x="29.5" fill="rgb(75, 75, 75)" font-size="10pt" font-family="Lato"  y="36">Rate</text><text text-decoration="none" x="56.5" fill="#4b4b4b" font-size="10pt" font-family="noto_regular"  y="36"></text></g></g><g id="2h9rg70vnx"><g transform="translate(160 305)"><ellipse cx="50" cy="25" rx="50" ry="25" fill="rgba(255,255,255,1)" stroke="#f6902a" stroke-width="1.5" stroke-linecap="round" stroke-linejoin="round"/></g><g transform="translate(191.5, 320.5) rotate(0, 18.5, 9.5)" width="37" height="19"><text text-decoration="none" x="2.5" fill="rgb(75, 75, 75)" font-size="10pt" font-family="Lato"  y="17">Email</text><text text-decoration="none" x="34.5" fill="#4b4b4b" font-size="10pt" font-family="noto_regular"  y="17"></text></g></g><g id="1ncgsbhqlv"><g transform="translate(295 490)"><ellipse cx="50" cy="25" rx="50" ry="25" fill="rgba(255,255,255,1)" stroke="#f6902a" stroke-width="1.5" stroke-linecap="round" stroke-linejoin="round"/></g><g transform="translate(298.5, 505.5) rotate(0, 46.5, 9.5)" width="93" height="19"><text text-decoration="none" x="3" fill="rgb(75, 75, 75)" font-size="10pt" font-family="Lato"  y="17">Student&#160;</text><text text-decoration="none" x="54" fill="rgb(75, 75, 75)" font-size="10pt" font-family="Lato"  y="17">Name</text><text text-decoration="none" x="90" fill="#4b4b4b" font-size="10pt" font-family="noto_regular"  y="17"></text></g></g><g id="1q10z6c8yg"><g transform="translate(215 610)"><ellipse cx="50" cy="25" rx="50" ry="25" fill="rgba(255,255,255,1)" stroke="#f6902a" stroke-width="1.5" stroke-linecap="round" stroke-linejoin="round"/></g><g transform="translate(218.5, 625.5) rotate(0, 46.5, 9.5)" width="93" height="19"><text text-decoration="none" x="3" fill="rgb(75, 75, 75)" font-size="10pt" font-family="Lato"  y="17">Student&#160;</text><text text-decoration="none" x="54" fill="rgb(75, 75, 75)" font-size="10pt" font-family="Lato"  y="17">Name</text><text text-decoration="none" x="90" fill="#4b4b4b" font-size="10pt" font-family="noto_regular"  y="17"></text></g></g><g id="degrnll0kn"><g transform="translate(245 640)"><ellipse cx="50" cy="25" rx="50" ry="25" fill="rgba(255,255,255,1)" stroke="#f6902a" stroke-width="1.5" stroke-linecap="round" stroke-linejoin="round"/></g><g transform="translate(248.5, 655.5) rotate(0, 46.5, 9.5)" width="93" height="19"><text text-decoration="none" x="3" fill="rgb(75, 75, 75)" font-size="10pt" font-family="Lato"  y="17">Student&#160;</text><text text-decoration="none" x="54" fill="rgb(75, 75, 75)" font-size="10pt" font-family="Lato"  y="17">Name</text><text text-decoration="none" x="90" fill="#4b4b4b" font-size="10pt" font-family="noto_regular"  y="17"></text></g></g><g id="1bt7w3ueju"><g transform="translate(275 670)"><ellipse cx="50" cy="25" rx="50" ry="25" fill="rgba(255,255,255,1)" stroke="#f6902a" stroke-width="1.5" stroke-linecap="round" stroke-linejoin="round"/></g><g transform="translate(278.5, 685.5) rotate(0, 46.5, 9.5)" width="93" height="19"><text text-decoration="none" x="3" fill="rgb(75, 75, 75)" font-size="10pt" font-family="Lato"  y="17">Student&#160;</text><text text-decoration="none" x="54" fill="rgb(75, 75, 75)" font-size="10pt" font-family="Lato"  y="17">Name</text><text text-decoration="none" x="90" fill="#4b4b4b" font-size="10pt" font-family="noto_regular"  y="17"></text></g></g><g id="1p6igti8aj"><g transform="translate(305 700)"><ellipse cx="50" cy="25" rx="50" ry="25" fill="rgba(255,255,255,1)" stroke="#f6902a" stroke-width="1.5" stroke-linecap="round" stroke-linejoin="round"/></g><g transform="translate(308.5, 715.5) rotate(0, 46.5, 9.5)" width="93" height="19"><text text-decoration="none" x="3" fill="rgb(75, 75, 75)" font-size="10pt" font-family="Lato"  y="17">Student&#160;</text><text text-decoration="none" x="54" fill="rgb(75, 75, 75)" font-size="10pt" font-family="Lato"  y="17">Name</text><text text-decoration="none" x="90" fill="#4b4b4b" font-size="10pt" font-family="noto_regular"  y="17"></text></g></g><g id="1li54pupkc"><g transform="translate(170 835)"><path d="M 130,30 L 65,60 L 0,30 L 65,0 L 130,30 L 130,30 Z" fill="rgba(255,255,255,1)" stroke="#75c19b" stroke-width="1.5" stroke-linecap="round" stroke-linejoin="round"/></g><g transform="translate(209.5, 855.5) rotate(0, 25.5, 9.5)" width="51" height="19"><text text-decoration="none" x="1.5" fill="rgb(75, 75, 75)" font-size="10pt" font-family="Lato"  y="17">Cont&#xE9;m</text><text text-decoration="none" x="49.5" fill="#4b4b4b" font-size="10pt" font-family="noto_regular"  y="17"></text></g></g><g id="27bt24tgn7"><g transform="translate(140 555)"><path d="M 130,30 L 65,60 L 0,30 L 65,0 L 130,30 L 130,30 Z" fill="rgba(255,255,255,1)" stroke="#75c19b" stroke-width="1.5" stroke-linecap="round" stroke-linejoin="round"/></g><g transform="translate(178.5, 575.5) rotate(0, 26.5, 9.5)" width="53" height="19"><text text-decoration="none" x="2" fill="rgb(75, 75, 75)" font-size="10pt" font-family="Lato"  y="17">Enrolled</text><text text-decoration="none" x="51" fill="#4b4b4b" font-size="10pt" font-family="noto_regular"  y="17"></text></g></g><g id="2hlrihkbwz"><g><path d="M 560,700 L 435,645" fill="none" stroke="#a0a0a0" stroke-width="1.5" stroke-linecap="round" stroke-linejoin="round"/></g></g></svg>